<?xml version="1.0" standalone="no"?>
<!DOCTYPE svg PUBLIC "-//W3C//DTD SVG 20010904//EN"
 "http://www.w3.org/TR/2001/REC-SVG-20010904/DTD/svg10.dtd">
<svg version="1.0" xmlns="http://www.w3.org/2000/svg"
 width="198.000000pt" height="48.000000pt" viewBox="0 0 198.000000 48.000000"
 preserveAspectRatio="xMidYMid meet">
<metadata>
Created by potrace 1.13, written by Peter Selinger 2001-2015
</metadata>
<g transform="translate(0.000000,48.000000) scale(0.100000,-0.100000)"
fill="#000000" stroke="none">
<path d="M160 447 c0 -28 6 -35 45 -56 26 -14 45 -31 45 -40 0 -10 -38 -47
-85 -84 l-85 -67 0 -73 c0 -65 3 -76 25 -97 l25 -23 0 81 0 81 85 67 85 67 0
51 0 51 -70 37 -70 37 0 -32z"/>
<path d="M1740 300 l0 -180 24 0 c22 0 25 5 28 41 2 29 9 46 25 56 20 14 24
11 63 -41 31 -41 49 -56 66 -56 13 0 24 4 24 8 0 5 -20 35 -45 68 -24 32 -45
64 -45 71 0 6 21 30 48 52 l47 41 -37 0 c-30 0 -46 -9 -92 -51 l-56 -51 0 111
0 111 -25 0 -25 0 0 -180z"/>
<path d="M1475 350 c-11 -4 -31 -20 -45 -35 -24 -25 -25 -33 -28 -171 l-3
-144 25 0 c25 0 26 1 26 70 l0 70 26 -10 c82 -32 164 23 164 110 0 82 -90 142
-165 110z m95 -60 c43 -43 11 -120 -50 -120 -62 0 -92 71 -48 117 27 29 71 30
98 3z"/>
</g>
</svg>
